<?xml version="1.0" encoding="UTF-8" standalone="no"?><svg xmlns="http://www.w3.org/2000/svg" xmlns:xlink="http://www.w3.org/1999/xlink" contentStyleType="text/css" height="499px" preserveAspectRatio="none" style="width:568px;height:499px;background:#FFFFFF;" version="1.1" viewBox="0 0 568 499" width="568px" zoomAndPan="magnify"><defs/><g><!--MD5=[639b4a993a3d792bf65ab0575fad70fd]
cluster muse--><g id="cluster_muse"><rect height="281" rx="2.5" ry="2.5" style="stroke:#181818;stroke-width:1.0;fill:none;" width="385" x="177.5" y="92"/><text fill="#000000" font-family="sans-serif" font-size="14" font-weight="bold" lengthAdjust="spacing" textLength="41" x="349.5" y="106.9951">MusE</text></g><!--MD5=[e4b95a7332e919e8bf5b3d9f9f3eac4f]
entity muse_call_run--><g id="elem_muse_call_run"><rect fill="#FFFFFF" height="76.8906" rx="2.5" ry="2.5" style="stroke:#181818;stroke-width:0.5;" width="193" x="345" y="135"/><text fill="#000000" font-family="sans-serif" font-size="14" lengthAdjust="spacing" textLength="65" x="355" y="157.9951">MuSE call</text><line style="stroke:#181818;stroke-width:1.0;" x1="346" x2="537" y1="161.2969" y2="161.2969"/><line style="stroke:#181818;stroke-width:1.0;" x1="346" x2="537" y1="163.2969" y2="163.2969"/><text fill="#000000" font-family="sans-serif" font-size="14" lengthAdjust="spacing" textLength="169" x="355" y="178.292">Output: position-specific</text><text fill="#000000" font-family="sans-serif" font-size="14" lengthAdjust="spacing" textLength="128" x="355" y="194.5889">summary statistics</text></g><!--MD5=[c6b37515c8d2cb7b67b9ca296cb292d7]
entity dbsnp_file--><g id="elem_dbsnp_file"><rect fill="#FFFFFF" height="60.5938" rx="2.5" ry="2.5" style="stroke:#181818;stroke-width:0.5;" width="89" x="221" y="143"/><text fill="#000000" font-family="sans-serif" font-size="14" lengthAdjust="spacing" textLength="46" x="231" y="165.9951">dbSNP</text><line style="stroke:#181818;stroke-width:1.0;" x1="222" x2="309" y1="169.2969" y2="169.2969"/><line style="stroke:#181818;stroke-width:1.0;" x1="222" x2="309" y1="171.2969" y2="171.2969"/><text fill="#000000" font-family="sans-serif" font-size="14" lengthAdjust="spacing" textLength="69" x="231" y="186.292">dbSNP vcf</text></g><!--MD5=[e6fe28e4e1f1dd4df5878c2c799c2252]
entity muse_sump_run--><g id="elem_muse_sump_run"><rect fill="#90EE90" height="76.8906" rx="2.5" ry="2.5" style="stroke:#181818;stroke-width:0.5;" width="151" x="294" y="272"/><text fill="#000000" font-family="sans-serif" font-size="14" lengthAdjust="spacing" textLength="82" x="304" y="294.9951">MuSE sump</text><line style="stroke:#181818;stroke-width:1.0;" x1="295" x2="444" y1="298.2969" y2="298.2969"/><line style="stroke:#181818;stroke-width:1.0;" x1="295" x2="444" y1="300.2969" y2="300.2969"/><text fill="#000000" font-family="sans-serif" font-size="14" lengthAdjust="spacing" textLength="127" x="304" y="315.292">Output: tier-based</text><text fill="#000000" font-family="sans-serif" font-size="14" lengthAdjust="spacing" textLength="47" x="304" y="331.5889">cutoffs</text></g><!--MD5=[7208dd2ab11e4302e615decefbd72785]
entity normal_bam--><g id="elem_normal_bam"><rect fill="#ADD8E6" height="60.5938" rx="2.5" ry="2.5" style="stroke:#181818;stroke-width:0.5;" width="163" x="7" y="7"/><text fill="#000000" font-family="sans-serif" font-size="14" lengthAdjust="spacing" textLength="82" x="17" y="29.9951">Normal bam</text><line style="stroke:#181818;stroke-width:1.0;" x1="8" x2="169" y1="33.2969" y2="33.2969"/><line style="stroke:#181818;stroke-width:1.0;" x1="8" x2="169" y1="35.2969" y2="35.2969"/><text fill="#000000" font-family="sans-serif" font-size="14" lengthAdjust="spacing" textLength="143" x="17" y="50.292">input normal bam file</text></g><!--MD5=[f2d67d33cd25f2be41fb883452e52018]
entity tumor_bam--><g id="elem_tumor_bam"><rect fill="#ADD8E6" height="60.5938" rx="2.5" ry="2.5" style="stroke:#181818;stroke-width:0.5;" width="157" x="205" y="7"/><text fill="#000000" font-family="sans-serif" font-size="14" lengthAdjust="spacing" textLength="79" x="215" y="29.9951">Tumor bam</text><line style="stroke:#181818;stroke-width:1.0;" x1="206" x2="361" y1="33.2969" y2="33.2969"/><line style="stroke:#181818;stroke-width:1.0;" x1="206" x2="361" y1="35.2969" y2="35.2969"/><text fill="#000000" font-family="sans-serif" font-size="14" lengthAdjust="spacing" textLength="137" x="215" y="50.292">input tumor bam file</text></g><!--MD5=[4fd85c5b9136191cfed7d4836f8529a3]
link muse_call_run to muse_sump_run--><g id="link_muse_call_run_muse_sump_run"><path codeLine="19" d="M395,212.03 C395,212.03 395,266.79 395,266.79 " fill="none" id="muse_call_run-to-muse_sump_run" style="stroke:#181818;stroke-width:1.0;"/><polygon fill="#181818" points="395,271.79,399,262.79,395,266.79,391,262.79,395,271.79" style="stroke:#181818;stroke-width:1.0;"/></g><!--MD5=[cebbe33b2db7894c96f894af8d661b07]
link dbsnp_file to muse_sump_run--><g id="link_dbsnp_file_muse_sump_run"><path codeLine="20" d="M302,204.25 C302,204.25 302,266.76 302,266.76 " fill="none" id="dbsnp_file-to-muse_sump_run" style="stroke:#181818;stroke-width:1.0;"/><polygon fill="#181818" points="302,271.76,306,262.76,302,266.76,298,262.76,302,271.76" style="stroke:#181818;stroke-width:1.0;"/></g><!--MD5=[9e2967866041791af7236a4eaf4f41c6]
link tumor_bam to muse--><g id="link_tumor_bam_muse"><path codeLine="23" d="M213,68.13 C213,73.1613 213,78.5889 213,84.2353 C213,85.6468 213,87.0721 213,88.5082 C213,89.2263 213,89.9471 213,90.6703 C213,91.0319 213,91.394 213,91.7568 " fill="none" id="tumor_bam-to-muse" style="stroke:#181818;stroke-width:1.0;"/><polygon fill="#181818" points="213,91.7568,217,82.7568,213,86.7568,209,82.7568,213,91.7568" style="stroke:#181818;stroke-width:1.0;"/></g><!--MD5=[52ba2fcf75d265cb6d505eb29533223a]
link normal_bam to muse--><g id="link_normal_bam_muse"><path codeLine="24" d="M170.34,38 C179.44,38 185.5,38 185.5,38 C185.5,38 185.5,45.9475 185.5,57.993 C185.5,64.0157 185.5,71.0629 185.5,78.6535 C185.5,82.4487 185.5,86.3798 185.5,90.3866 C185.5,90.8874 185.5,91.3894 185.5,91.8925 " fill="none" id="normal_bam-to-muse" style="stroke:#181818;stroke-width:1.0;"/><polygon fill="#181818" points="185.5,91.8925,189.5,82.8925,185.5,86.8925,181.5,82.8925,185.5,91.8925" style="stroke:#181818;stroke-width:1.0;"/></g><rect fill="#DDDDDD" height="97.4844" rx="7.5" ry="7.5" style="stroke:#000000;stroke-width:1.0;" width="143" x="8" y="386"/><text fill="#000000" font-family="sans-serif" font-size="14" lengthAdjust="spacing" textLength="36" x="14" y="406.9951">Color</text><text fill="#000000" font-family="sans-serif" font-size="14" lengthAdjust="spacing" textLength="94" x="50" y="406.9951">Process Type</text><rect fill="#ADD8E6" height="16.2969" style="stroke:none;stroke-width:1.0;" width="36" x="14" y="410.2969"/><text fill="#000000" font-family="sans-serif" font-size="14" lengthAdjust="spacing" textLength="4" x="14" y="423.292"> </text><text fill="#000000" font-family="sans-serif" font-size="14" lengthAdjust="spacing" textLength="35" x="54" y="423.292">Input</text><rect fill="#FFFFFF" height="16.2969" style="stroke:none;stroke-width:1.0;" width="36" x="14" y="426.5938"/><text fill="#000000" font-family="sans-serif" font-size="14" lengthAdjust="spacing" textLength="4" x="14" y="439.5889"> </text><text fill="#000000" font-family="sans-serif" font-size="14" lengthAdjust="spacing" textLength="87" x="54" y="439.5889">Intermediate</text><rect fill="#90EE90" height="16.2969" style="stroke:none;stroke-width:1.0;" width="36" x="14" y="442.8906"/><text fill="#000000" font-family="sans-serif" font-size="14" lengthAdjust="spacing" textLength="4" x="14" y="455.8857"> </text><text fill="#000000" font-family="sans-serif" font-size="14" lengthAdjust="spacing" textLength="48" x="54" y="455.8857">Output</text><rect fill="#FFFF00" height="16.2969" style="stroke:none;stroke-width:1.0;" width="36" x="14" y="459.1875"/><text fill="#000000" font-family="sans-serif" font-size="14" lengthAdjust="spacing" textLength="4" x="14" y="472.1826"> </text><text fill="#000000" font-family="sans-serif" font-size="14" lengthAdjust="spacing" textLength="21" x="54" y="472.1826">QC</text><line style="stroke:#000000;stroke-width:1.0;" x1="14" x2="145" y1="394" y2="394"/><line style="stroke:#000000;stroke-width:1.0;" x1="14" x2="145" y1="410.2969" y2="410.2969"/><line style="stroke:#000000;stroke-width:1.0;" x1="14" x2="145" y1="426.5938" y2="426.5938"/><line style="stroke:#000000;stroke-width:1.0;" x1="14" x2="145" y1="442.8906" y2="442.8906"/><line style="stroke:#000000;stroke-width:1.0;" x1="14" x2="145" y1="459.1875" y2="459.1875"/><line style="stroke:#000000;stroke-width:1.0;" x1="14" x2="145" y1="475.4844" y2="475.4844"/><line style="stroke:#000000;stroke-width:1.0;" x1="14" x2="14" y1="394" y2="475.4844"/><line style="stroke:#000000;stroke-width:1.0;" x1="50" x2="50" y1="394" y2="475.4844"/><line style="stroke:#000000;stroke-width:1.0;" x1="145" x2="145" y1="394" y2="475.4844"/><!--MD5=[ab14228ec368d544b576de87bba844c9]
@startuml muse_chart

!include pipeline_elements.iuml!string_functions
!include pipeline_elements.iuml!input_rect
!include pipeline_elements.iuml!output_rect
!include pipeline_elements.iuml!intermediate_rect
!include pipeline_elements.iuml!qc_rect
!include pipeline_elements.iuml!process_legend

skinparam linetype ortho

$input_process(normal_bam, 'Normal bam', 'input normal bam file')
$input_process(tumor_bam, 'Tumor bam', 'input tumor bam file')

rectangle muse as "MusE" {
    $intermediate_process(muse_call_run, "MuSE call", "Output: position-specific %newline()summary statistics")
    $intermediate_process(dbsnp_file, 'dbSNP', 'dbSNP vcf')
    $output_process(muse_sump_run, "MuSE sump", "Output: tier-based %newline()cutoffs")

    muse_call_run -d-> muse_sump_run
    dbsnp_file -d-> muse_sump_run
}

tumor_bam -d-> muse
normal_bam -d-> muse

$add_legend("left")

@enduml

@startuml muse_chart


skinparam linetype ortho

rectangle normal_bam #LightBlue as "
Normal bam
====
input normal bam file"
rectangle tumor_bam #LightBlue as "
Tumor bam
====
input tumor bam file"

rectangle muse as "MusE" {
    rectangle muse_call_run #White as "
MuSE call
====
Output: position-specific 
summary statistics"
    rectangle dbsnp_file #White as "
dbSNP
====
dbSNP vcf"
    rectangle muse_sump_run #LightGreen as "
MuSE sump
====
Output: tier-based 
cutoffs"

    muse_call_run -d-> muse_sump_run
    dbsnp_file -d-> muse_sump_run
}

tumor_bam -d-> muse
normal_bam -d-> muse

legend left
  |Color|Process Type|
  |<#LightBlue>| Input |
  |<#White>| Intermediate |
  |<#LightGreen>| Output |
  |<#Yellow>| QC |
endlegend

@enduml

PlantUML version 1.2022.6(Tue Jun 21 17:34:49 GMT 2022)
(GPL source distribution)
Java Runtime: OpenJDK Runtime Environment
JVM: OpenJDK 64-Bit Server VM
Default Encoding: UTF-8
Language: en
Country: US
--></g></svg>